<?xml version="1.0" standalone="no"?><!DOCTYPE svg PUBLIC "-//W3C//DTD SVG 1.1//EN" "http://www.w3.org/Graphics/SVG/1.1/DTD/svg11.dtd"><svg t="1775833987546" class="icon" viewBox="0 0 1024 1024" version="1.1" xmlns="http://www.w3.org/2000/svg" p-id="5587" xmlns:xlink="http://www.w3.org/1999/xlink" width="48" height="48"><path d="M621.1 858.2H402.9c-62.2 0-113-50.9-113-113 0-62.2 50.9-113 113-113h218.2c62.2 0 113 50.9 113 113 0.1 62.1-50.8 113-113 113z" fill="#B2BBC5" p-id="5588"></path><path d="M788.3 173.7h-175v-25.9c0-24.7-20-44.7-44.7-44.7h-113c-24.7 0-44.7 20-44.7 44.7v25.9H109.6v109.8c0 69.8 56.4 126.6 126 127.4v335c0 96.6 78.6 175.2 175.2 175.2h202.3c96.1 0 174.4-77.9 175.1-175.2h0.1v-335c69.6-0.8 126-57.6 126-127.4V173.7h-126zM235.7 335.4c-28-0.8-50.6-23.7-50.6-52V249h50.6v86.4z m377.5 510.2H410.8c-55 0-99.8-44.8-99.8-101.2 0-55 44.8-99.8 99.8-99.8h202.3c55 0 99.8 44.8 99.8 101.2 0.1 55.1-44.7 99.8-99.7 99.8zM713 600.7c-28.3-19.7-62.7-31.4-99.8-31.4H410.8c-37.1 0-71.5 11.7-99.8 31.5V249h99.7v82.4c0 24.7 20 44.7 44.7 44.7h113c24.7 0 44.7-20 44.7-44.7V249H713v351.7z m125.9-317.2c0 28.2-22.6 51.1-50.6 52V249h50.6v34.5z" fill="#242529" p-id="5589"></path><path d="M425.2 745.2m-28.3 0a28.3 28.3 0 1 0 56.6 0 28.3 28.3 0 1 0-56.6 0Z" fill="#242529" p-id="5590"></path><path d="M598.8 745.2m-28.3 0a28.3 28.3 0 1 0 56.6 0 28.3 28.3 0 1 0-56.6 0Z" fill="#242529" p-id="5591"></path></svg>